<svg xmlns="http://www.w3.org/2000/svg" viewBox="0 0 32 32" role="img" aria-labelledby="title description">
  <title id="title">MeanThis</title>
  <desc id="description">A head-cocked, impatient cat face with uneven golden eyes.</desc>
  <rect x=".5" y=".5" width="31" height="31" rx="7.5" fill="#2457d6" />
  <path d="M.7 5.3 16.1 14.7q-.9 5.2-5.5 7.6-5.9.9-9.1-4.6Q.3 12.3.7 5.3Z" fill="#f7b733" />
  <path d="M18 15.5 31.2 9.6q-.6 5.2-3.7 8.5-3.2 2.8-6.8.7-1.5-.7-2.7-3.3Z" fill="#f7b733" />
  <rect x="7.9" y="12" width="2.8" height="6.4" rx="1.4" fill="#050b20" />
  <rect x="24.4" y="13.3" width="1.8" height="4" rx=".9" fill="#050b20" />
  <circle cx="8.7" cy="13.2" r=".42" fill="#fff0cc" />
  <circle cx="24.9" cy="14.1" r=".34" fill="#fff0cc" />
  <g fill="none" stroke="#fff0cc" stroke-linecap="round" stroke-linejoin="round">
    <path d="M.5 4.2q7.6 4.3 15.7 10.1" stroke-width="1.5" />
    <path d="M31.3 7.2q-7.4 2.6-13 7.5" stroke-width="1.3" />
    <path d="M15.3 19Q8.8 25.8 2 30.7" stroke-width="1.5" />
    <path d="M18.2 19q6.3 6.1 12.8 10.4" stroke-width="1.3" />
    <path d="M10.3 28q6-5.1 10.7-2 2.5 2 5-.6" stroke-width="2.2" />
  </g>
  <path d="M10.3 28q6-5.1 10.7-2 2.5 2 5-.6" fill="none" stroke="#f7b733" stroke-width="1.1" stroke-linecap="round" stroke-linejoin="round" />
</svg>
